M48
; DRILL file {KiCad 9.0.1} date 2025-04-30T11:52:48+0500
; FORMAT={-:-/ absolute / metric / decimal}
; #@! TF.CreationDate,2025-04-30T11:52:48+05:00
; #@! TF.GenerationSoftware,Kicad,Pcbnew,9.0.1
; #@! TF.FileFunction,Plated,1,2,PTH
FMAT,2
METRIC
; #@! TA.AperFunction,Plated,PTH,ViaDrill
T1C0.300
; #@! TA.AperFunction,Plated,PTH,ComponentDrill
T2C0.700
; #@! TA.AperFunction,Plated,PTH,ComponentDrill
T3C0.813
; #@! TA.AperFunction,Plated,PTH,ComponentDrill
T4C0.900
; #@! TA.AperFunction,Plated,PTH,ComponentDrill
T5C1.000
; #@! TA.AperFunction,Plated,PTH,ComponentDrill
T6C1.016
; #@! TA.AperFunction,Plated,PTH,ComponentDrill
T7C2.300
; #@! TA.AperFunction,Plated,PTH,ComponentDrill
T8C2.500
; #@! TA.AperFunction,Plated,PTH,ComponentDrill
T9C3.000
%
G90
G05
T1
X142.484Y-87.159
X145.214Y-84.339
X147.894Y-83.759
T2
X137.144Y-86.589
X137.144Y-94.209
X150.861Y-86.589
X150.861Y-94.209
X164.578Y-86.589
X164.578Y-94.209
X178.294Y-86.589
X178.294Y-94.209
T3
X128.331Y-101.009
X128.331Y-106.089
X135.951Y-101.009
X135.951Y-106.089
X141.978Y-101.009
X141.978Y-106.089
X149.598Y-101.009
X149.598Y-106.089
X155.624Y-101.009
X155.624Y-106.089
X163.244Y-101.009
X163.244Y-106.089
X169.271Y-101.009
X169.271Y-106.089
X176.891Y-101.009
X176.891Y-106.089
T4
X130.784Y-90.229
X133.324Y-90.229
X144.574Y-90.229
X147.114Y-90.229
X158.364Y-90.229
X160.904Y-90.229
X172.154Y-90.229
X174.694Y-90.229
T5
X120.914Y-84.419
X125.914Y-84.419
T6
X136.44Y-80.419
X138.98Y-80.419
X141.52Y-80.419
X144.06Y-80.419
X145.584Y-128.679
X146.6Y-80.419
X148.124Y-128.679
X149.14Y-80.419
X150.664Y-128.679
X151.68Y-80.419
X153.204Y-128.679
X154.22Y-80.419
X155.744Y-128.679
X156.76Y-80.419
X158.284Y-128.679
X159.3Y-80.419
X160.824Y-128.679
X163.364Y-80.419
X163.364Y-128.679
X165.904Y-80.419
X168.444Y-80.419
X168.444Y-128.679
X170.984Y-80.419
X170.984Y-128.679
X173.524Y-80.419
X173.524Y-128.679
X176.064Y-80.419
X176.064Y-128.679
X178.604Y-80.419
X178.604Y-128.679
X181.144Y-80.419
X181.144Y-128.679
X181.271Y-100.739
X181.271Y-103.279
X181.271Y-105.819
X183.811Y-100.739
X183.811Y-103.279
X183.811Y-105.819
T7
X178.814Y-114.389
T8
X179.814Y-109.889
X179.814Y-118.889
T9
X172.814Y-114.389
M30
