M48
; DRILL file {KiCad 9.0.1} date 2025-04-23T01:08:38+0500
; FORMAT={-:-/ absolute / metric / decimal}
; #@! TF.CreationDate,2025-04-23T01:08:38+05:00
; #@! TF.GenerationSoftware,Kicad,Pcbnew,9.0.1
; #@! TF.FileFunction,Plated,1,2,PTH
FMAT,2
METRIC
; #@! TA.AperFunction,Plated,PTH,ViaDrill
T1C0.300
; #@! TA.AperFunction,Plated,PTH,ComponentDrill
T2C0.700
; #@! TA.AperFunction,Plated,PTH,ComponentDrill
T3C0.813
; #@! TA.AperFunction,Plated,PTH,ComponentDrill
T4C0.900
; #@! TA.AperFunction,Plated,PTH,ComponentDrill
T5C1.000
; #@! TA.AperFunction,Plated,PTH,ComponentDrill
T6C1.016
; #@! TA.AperFunction,Plated,PTH,ComponentDrill
T7C2.300
; #@! TA.AperFunction,Plated,PTH,ComponentDrill
T8C2.500
; #@! TA.AperFunction,Plated,PTH,ComponentDrill
T9C3.000
%
G90
G05
T1
X108.2Y-63.48
X110.93Y-60.66
X113.61Y-60.08
T2
X102.86Y-62.91
X102.86Y-70.53
X116.577Y-62.91
X116.577Y-70.53
X130.293Y-62.91
X130.293Y-70.53
X144.01Y-62.91
X144.01Y-70.53
T3
X94.047Y-77.33
X94.047Y-82.41
X101.667Y-77.33
X101.667Y-82.41
X107.693Y-77.33
X107.693Y-82.41
X115.313Y-77.33
X115.313Y-82.41
X121.34Y-77.33
X121.34Y-82.41
X128.96Y-77.33
X128.96Y-82.41
X134.987Y-77.33
X134.987Y-82.41
X142.607Y-77.33
X142.607Y-82.41
T4
X96.5Y-66.55
X99.04Y-66.55
X110.29Y-66.55
X112.83Y-66.55
X124.08Y-66.55
X126.62Y-66.55
X137.87Y-66.55
X140.41Y-66.55
T5
X86.63Y-60.74
X91.63Y-60.74
T6
X102.156Y-56.74
X104.696Y-56.74
X107.236Y-56.74
X109.776Y-56.74
X111.3Y-105.0
X112.316Y-56.74
X113.84Y-105.0
X114.856Y-56.74
X116.38Y-105.0
X117.396Y-56.74
X118.92Y-105.0
X119.936Y-56.74
X121.46Y-105.0
X122.476Y-56.74
X124.0Y-105.0
X125.016Y-56.74
X126.54Y-105.0
X129.08Y-56.74
X129.08Y-105.0
X131.62Y-56.74
X134.16Y-56.74
X134.16Y-105.0
X136.7Y-56.74
X136.7Y-105.0
X139.24Y-56.74
X139.24Y-105.0
X141.78Y-56.74
X141.78Y-105.0
X144.32Y-56.74
X144.32Y-105.0
X146.86Y-56.74
X146.86Y-105.0
X146.987Y-77.06
X146.987Y-79.6
X146.987Y-82.14
X149.527Y-77.06
X149.527Y-79.6
X149.527Y-82.14
T7
X144.53Y-90.71
T8
X145.53Y-86.21
X145.53Y-95.21
T9
X138.53Y-90.71
M30
